<?xml version="1.0" encoding="UTF-8" standalone="no"?>
<!DOCTYPE svg PUBLIC "-//W3C//DTD SVG 1.1//EN" "http://www.w3.org/Graphics/SVG/1.1/DTD/svg11.dtd">
<svg width="100%" height="100%" viewBox="0 0 200 250" version="1.1" xmlns="http://www.w3.org/2000/svg" xmlns:xlink="http://www.w3.org/1999/xlink" xml:space="preserve" xmlns:serif="http://www.serif.com/" style="fill-rule:evenodd;clip-rule:evenodd;stroke-linejoin:round;stroke-miterlimit:2;">
    <g transform="matrix(1,0,0,1,-221,-153)">
        <g id="default-image" transform="matrix(1,0,0,1.01215,-26,-1.8583)">
            <rect x="247" y="153" width="200" height="247" style="fill:rgb(102,102,102);"/>
            <g transform="matrix(0.727083,0,0,0.718358,48.5625,233.398)">
                <path d="M480,0L482.8,0C486.774,0 490,3.226 490,7.2L490,112.8C490,116.774 486.774,120 482.8,120L480,120L480,113C480,111.344 478.656,110 477,110L463,110C461.344,110 460,111.344 460,113L460,120L360,120L360,113C360,111.344 358.656,110 357,110L343,110C341.344,110 340,111.344 340,113L340,120L337.2,120C333.226,120 330,116.774 330,112.8L330,7.2C330,3.226 333.226,0 337.2,0L340,0L340,7C340,8.656 341.344,10 343,10L357,10C358.656,10 360,8.656 360,7L360,0L460,0L460,7C460,8.656 461.344,10 463,10L477,10C478.656,10 480,8.656 480,7L480,0ZM445,70.96C445,69.326 443.674,68 442.04,68L377.96,68C376.326,68 375,69.326 375,70.96L375,102.04C375,103.674 376.326,105 377.96,105L442.04,105C443.674,105 445,103.674 445,102.04L445,70.96ZM360,83C360,81.344 358.656,80 357,80L343,80C341.344,80 340,81.344 340,83L340,97C340,98.656 341.344,100 343,100L357,100C358.656,100 360,98.656 360,97L360,83ZM480,83C480,81.344 478.656,80 477,80L463,80C461.344,80 460,81.344 460,83L460,97C460,98.656 461.344,100 463,100L477,100C478.656,100 480,98.656 480,97L480,83ZM360,53C360,51.344 358.656,50 357,50L343,50C341.344,50 340,51.344 340,53L340,67C340,68.656 341.344,70 343,70L357,70C358.656,70 360,68.656 360,67L360,53ZM480,53C480,51.344 478.656,50 477,50L463,50C461.344,50 460,51.344 460,53L460,67C460,68.656 461.344,70 463,70L477,70C478.656,70 480,68.656 480,67L480,53ZM445,17.96C445,16.326 443.674,15 442.04,15L377.96,15C376.326,15 375,16.326 375,17.96L375,49.04C375,50.674 376.326,52 377.96,52L442.04,52C443.674,52 445,50.674 445,49.04L445,17.96ZM360,23C360,21.344 358.656,20 357,20L343,20C341.344,20 340,21.344 340,23L340,37C340,38.656 341.344,40 343,40L357,40C358.656,40 360,38.656 360,37L360,23ZM480,23C480,21.344 478.656,20 477,20L463,20C461.344,20 460,21.344 460,23L460,37C460,38.656 461.344,40 463,40L477,40C478.656,40 480,38.656 480,37L480,23Z" style="fill:rgb(140,140,140);"/>
            </g>
        </g>
    </g>
</svg>
