<?xml version="1.0" encoding="UTF-8" standalone="no"?>
<!DOCTYPE svg PUBLIC "-//W3C//DTD SVG 1.1//EN" "http://www.w3.org/Graphics/SVG/1.1/DTD/svg11.dtd">
<svg width="100%" height="100%" viewBox="0 0 100 100" version="1.1" xmlns="http://www.w3.org/2000/svg" xmlns:xlink="http://www.w3.org/1999/xlink" xml:space="preserve" xmlns:serif="http://www.serif.com/" style="fill-rule:evenodd;clip-rule:evenodd;stroke-linejoin:round;stroke-miterlimit:2;">
    <g transform="matrix(1,0,0,1,-557,-1)">
        <g id="icon" transform="matrix(1,0,0,1,111,1)">
            <rect x="446" y="0" width="100" height="100" style="fill:none;"/>
            <g transform="matrix(0.9,0,0,0.9,49.6,5)">
                <circle cx="496" cy="50" r="50" style="fill:rgb(0,179,219);"/>
            </g>
            <g transform="matrix(0.106198,-0.012045,0.012045,0.106198,441.979,-0.33038)">
                <path d="M895.876,319.58C895.69,316.734 894.322,314.944 891.569,314.235C889.628,313.737 887.703,313.188 885.744,312.884C857.782,308.492 829.785,304.203 801.536,302.245C778.975,300.676 756.384,299.68 733.773,298.665C690.257,296.716 646.829,297.669 603.55,303.141C577.108,306.485 550.934,311.271 525.504,319.486C512.654,323.64 500.025,328.486 487.157,332.572C467.079,338.929 446.474,341.792 425.637,337.884C413.109,335.529 400.748,331.947 388.599,328.014C366.615,320.905 344.646,313.897 321.841,309.702C277.499,301.514 232.82,297.755 191.163,298.203C157.206,298.253 126.702,299.411 96.333,303.057C71.427,306.045 46.555,309.371 21.682,312.748C16.397,313.475 11.23,315.028 6.055,316.395C3.286,317.121 1.454,318.96 1.361,322.042C0.88,336.732 0.373,351.415 0.002,366.123C-0.048,368.335 0.492,370.563 0.83,372.775C1.108,374.64 2.13,375.932 3.92,376.717C5.819,377.545 7.77,378.38 9.459,379.545C17.624,385.235 21.558,393.848 24.69,402.788C26.919,409.18 28.363,415.832 30.211,422.35C31.359,426.412 32.879,430.379 33.799,434.482C38.113,453.662 42.124,472.926 46.539,492.075C50.752,510.346 56.24,528.212 64.978,544.929C74.738,563.604 88.652,577.907 108.399,586.129C120.354,591.11 132.79,594.285 145.539,596.312C168.385,599.925 191.367,600.365 214.415,598.693C237.751,597.005 260.791,593.475 283.241,586.687C299.907,581.638 315.662,574.614 329.035,563.233C349.45,545.824 365.888,525.156 378.51,501.449C391.124,477.775 399.971,452.602 407.908,427.081C410.196,419.753 412.348,412.382 415,405.188C418.917,394.592 426.508,388.042 437.812,386.302C441.409,385.744 445.139,385.593 448.788,385.804C457.268,386.302 465.424,388.092 471.08,395.175C473.546,398.257 475.825,401.668 477.412,405.273C480.503,412.29 483.441,419.416 485.737,426.711C495.7,458.257 508.922,488.314 525.637,516.866C539.499,540.592 557.786,559.757 582.034,572.977C599.173,582.331 617.511,588.292 636.608,592.007C665.331,597.579 694.339,598.945 723.502,597.663C741.131,596.902 758.557,594.656 775.51,589.592C792.904,584.374 808.2,575.898 819.632,561.376C827.028,552.005 832.516,541.552 837.026,530.56C846.533,507.393 852.644,483.23 858.167,458.88C860.869,446.972 863.655,435.076 866.56,423.205C868.081,416.999 869.989,410.903 871.709,404.758C873.313,399 874.682,393.157 878.328,388.176C881.992,383.169 885.741,378.264 891.853,376.094C894.521,375.14 895.873,373.283 896.447,370.75C896.885,368.791 897.358,366.799 897.358,364.831C897.375,356.042 897.375,347.253 897.122,338.48C896.923,332.167 896.265,325.886 895.876,319.58M37.541,347.399C28.035,347.399 20.335,345.508 20.335,343.178C20.335,340.829 28.035,338.94 37.541,338.94C47.031,338.94 54.723,340.831 54.723,343.178C54.723,345.507 47.031,347.399 37.541,347.399M369.841,440.337C363.814,465.99 353.876,490.035 340.57,512.746C333.308,525.157 325.069,536.774 314.617,546.737C300.821,559.908 284.214,567.675 265.986,572.455C229.082,582.112 191.757,584.527 154.001,578.871C146.605,577.757 139.31,575.814 132.032,573.975C117.046,570.125 105.674,561.396 97.028,548.529C87.463,534.277 81.594,518.626 77.66,502.093C72.527,480.513 69.639,458.578 67.461,436.53C66.186,423.739 66.431,411 68.01,398.276C68.803,391.878 69.319,385.377 70.771,379.111C75.904,356.822 89.683,342.621 111.836,336.812C132.082,331.51 152.708,328.386 173.528,326.698C188.97,325.431 204.454,324.79 214.45,324.207C249.986,324.655 279.823,326.917 309.179,333.688C321.168,336.432 333.309,338.906 344.277,344.749C349.672,347.619 354.907,351.03 359.618,354.914C367.393,361.322 371.362,370.06 373.025,379.938C376.479,400.318 374.51,420.404 369.841,440.337M829.651,430.822C828.875,461.803 823.656,492.047 812.613,521.122C808.156,532.893 802.092,543.768 792.974,552.599C782.81,562.46 770.162,567.678 756.721,571.325C739.834,575.901 722.562,577 705.168,577.151C678.911,577.387 653.042,574.112 627.394,568.657C601.982,563.256 581.717,549.948 565.592,529.803C544.924,503.968 531.687,474.655 524.274,442.568C520.845,427.742 517.959,412.824 518.33,397.517C518.499,390.932 519.175,384.279 520.374,377.786C523.328,361.61 533.258,351.047 548.218,344.97C563.246,338.891 578.967,335.177 594.822,332.035C612.468,328.531 630.264,325.914 648.215,324.758C662.232,323.846 676.279,323.466 685.785,323.052C723.389,324.893 756.264,327.661 788.23,336.78C794.107,338.451 799.729,341.128 805.285,343.737C810.554,346.203 814.605,350.238 817.223,355.465C820.112,361.249 823.081,367.031 825.363,373.052C828.031,380.111 828.622,387.675 828.909,395.163C829.363,407.047 829.954,418.952 829.651,430.822M859.319,347.399C849.83,347.399 842.13,345.508 842.13,343.178C842.13,340.829 849.83,338.94 859.319,338.94C868.807,338.94 876.507,340.831 876.507,343.178C876.508,345.507 868.808,347.399 859.319,347.399" style="fill-rule:nonzero;"/>
            </g>
        </g>
    </g>
</svg>
