<?xml version="1.0" encoding="UTF-8" standalone="no"?>
<!DOCTYPE svg PUBLIC "-//W3C//DTD SVG 1.1//EN" "http://www.w3.org/Graphics/SVG/1.1/DTD/svg11.dtd">
<svg width="100%" height="100%" viewBox="0 0 100 100" version="1.1" xmlns="http://www.w3.org/2000/svg" xmlns:xlink="http://www.w3.org/1999/xlink" xml:space="preserve" xmlns:serif="http://www.serif.com/" style="fill-rule:evenodd;clip-rule:evenodd;stroke-linejoin:round;stroke-miterlimit:2;">
    <g transform="matrix(1,0,0,1,-557,-1)">
        <g id="icon" transform="matrix(1,0,0,1,111,1)">
            <rect x="446" y="0" width="100" height="100" style="fill:none;"/>
            <g transform="matrix(0.9,0,0,0.9,49.6,5)">
                <circle cx="496" cy="50" r="50" style="fill:rgb(0,154,189);"/>
                <clipPath id="_clip1">
                    <circle cx="496" cy="50" r="50"/>
                </clipPath>
                <g clip-path="url(#_clip1)">
                    <g transform="matrix(0.208333,0,0,0.208333,442.121,-3.33333)">
                        <path d="M485.367,165.075C483.343,163.077 481.345,161.105 480.333,159.107C479.348,157.109 479.348,154.126 479.348,151.168C479.348,150.155 478.336,149.17 478.336,148.184C475.325,149.17 474.339,150.156 471.329,151.168C470.291,156.124 469.305,160.12 468.319,165.076C465.283,162.093 462.272,158.122 458.251,155.138L458.251,145.2C455.241,143.202 452.231,140.243 449.22,137.234C448.235,136.247 446.211,135.262 445.224,134.249L435.183,134.249C436.168,137.234 437.181,140.243 438.193,143.202C442.215,146.186 447.197,148.184 451.246,151.168C452.232,152.154 452.232,152.154 453.217,153.141C452.233,154.126 451.246,154.126 451.246,154.126L451.246,162.092C448.235,163.077 446.212,164.09 444.214,165.075C442.216,164.09 441.204,164.09 439.18,164.09C437.182,162.092 436.169,160.12 435.184,159.107L444.214,159.107C445.225,158.122 446.212,157.109 447.197,156.124C440.192,152.154 434.171,147.172 427.165,143.202C427.165,141.23 426.127,139.232 425.142,137.234C423.118,140.243 420.108,142.216 418.11,145.2C415.099,144.213 412.089,143.202 410.092,143.202C406.044,148.184 401.061,153.141 397.039,159.108C396.026,161.106 396.026,163.078 395.016,165.076C393.017,165.076 390.007,165.076 386.997,166.063L375.942,166.063C372.931,165.076 370.934,164.09 368.936,163.078C367.924,158.122 366.912,153.141 366.912,149.17C366.912,147.172 367.925,145.2 368.936,142.215C372.931,141.229 376.954,141.229 380.975,140.242C384.971,141.229 388.995,141.229 394.028,142.215C394.028,140.242 395.015,137.233 395.015,135.261C394.028,135.261 391.019,134.248 390.006,134.248C390.006,130.279 391.019,126.309 392.003,123.35C396.025,122.339 400.022,122.339 405.056,121.352C408.067,117.356 411.076,112.4 414.087,108.43C417.096,107.445 420.107,107.445 423.116,107.445C426.125,107.445 429.137,107.445 431.16,108.43L435.182,108.43C434.169,104.46 434.169,100.464 433.184,96.493C429.136,97.48 426.125,99.478 423.116,100.463C422.131,97.48 420.106,94.522 419.12,91.537C417.096,91.537 415.098,90.552 413.099,90.552C413.099,88.554 412.087,86.582 412.087,84.583C413.099,82.585 415.097,80.587 417.095,79.601C419.119,78.615 421.118,77.63 423.116,77.63C379.99,38.861 322.747,16 260.521,16C221.377,16 184.232,24.952 152.121,40.859L166.172,40.859C168.17,43.817 170.181,46.827 172.192,49.811C176.2,50.798 179.211,50.798 183.233,50.798C185.244,48.8 188.255,46.827 190.253,44.83C191.265,44.83 193.262,45.815 195.274,46.828C191.264,49.812 189.266,52.771 185.244,55.754L173.191,55.754C174.203,55.754 174.203,64.706 174.203,64.706C180.224,64.706 185.245,63.694 190.253,63.694C190.253,62.708 191.265,61.722 191.265,60.71C195.275,59.724 199.297,59.724 202.306,58.739C202.306,57.753 203.319,55.754 203.319,52.771C201.295,52.771 199.297,52.771 197.286,51.785C198.284,50.799 199.297,48.801 199.297,46.828C201.295,45.816 202.306,45.816 204.304,44.83C210.338,45.815 215.346,45.815 220.367,45.815C218.369,48.8 214.36,51.784 212.336,54.768C212.336,56.739 212.336,58.738 213.347,60.709C216.358,61.722 219.367,61.722 223.376,61.722C222.391,57.752 222.391,54.768 222.391,50.798C225.401,48.8 228.398,46.827 231.409,45.815C236.442,44.83 242.449,44.83 247.484,43.817C255.514,46.827 263.534,50.798 270.552,54.768L270.552,62.707C273.563,63.693 276.584,64.705 278.582,65.692C277.597,67.69 276.584,69.662 274.573,72.646L264.532,72.646C263.533,74.644 262.534,77.629 260.522,79.6C253.49,78.614 245.459,75.631 236.441,74.644L254.502,57.752L230.408,61.722C229.41,63.694 227.399,65.692 225.401,66.703C223.376,67.69 220.367,67.69 218.369,67.69C220.367,84.582 214.36,68.675 196.286,74.644C178.226,85.568 159.141,97.479 195.275,102.461C195.275,122.338 198.284,120.366 206.316,105.446C210.339,103.474 214.36,101.476 219.368,100.463L219.368,83.596C222.391,82.585 224.389,79.6 227.4,78.614C233.433,79.6 239.44,80.587 244.474,82.585C244.474,85.568 243.462,89.539 243.462,93.509L248.47,93.509C252.492,91.536 257.512,89.539 261.522,86.581C261.522,91.537 261.522,96.493 262.535,101.476C265.545,103.474 268.554,105.446 271.565,107.444L271.565,116.37C268.553,117.356 264.533,118.368 262.535,119.354L262.535,122.339C266.556,124.337 269.566,125.322 273.563,127.32L273.563,133.263L270.552,133.263C265.544,131.29 260.523,130.279 256.501,129.293C256.501,127.32 256.501,126.309 255.514,124.337C257.512,123.35 258.525,123.35 259.51,122.339L259.51,117.356C258.525,117.356 256.501,117.356 255.514,116.37C254.503,118.368 254.503,119.354 254.503,120.367C251.479,120.367 249.481,121.352 246.472,121.352L246.472,122.339L243.462,122.339C242.449,120.367 241.451,119.354 241.451,117.356C240.451,117.356 239.44,117.356 238.44,116.37L233.432,116.37C232.42,117.356 231.409,118.368 230.409,118.368L230.409,123.35C232.42,123.35 233.432,124.337 235.431,124.337C236.442,125.322 238.44,125.322 240.451,125.322L239.44,125.322C237.429,127.32 236.442,129.293 234.419,130.279C234.419,129.293 233.433,129.293 233.433,128.307C231.41,128.307 230.41,127.32 228.399,127.32C225.402,130.279 221.379,134.248 217.357,137.233C218.37,137.233 218.37,138.244 219.368,139.231C213.348,141.229 208.326,145.199 202.306,147.171C197.286,153.14 192.278,158.121 187.243,163.077C186.244,166.062 186.244,168.06 186.244,170.032C181.235,174.002 176.201,177.012 171.181,180.982C168.171,182.954 166.173,185.938 163.163,187.936L163.163,203.843C160.139,201.845 157.129,200.859 153.133,198.86L153.133,189.908L124.006,189.908C117.986,191.906 113.977,194.89 108.968,197.874C105.946,201.844 103.934,204.828 101.923,209.785C100.912,212.794 99.925,215.752 98.914,218.737C99.926,221.72 101.923,225.691 103.935,228.675C107.958,229.66 110.967,229.66 115.976,229.66C122.009,225.69 128.029,221.719 134.061,216.764C135.048,219.722 135.048,221.72 137.059,223.692C134.061,226.676 132.038,230.646 131.052,234.642C135.048,235.628 140.068,236.64 145.103,236.64C145.103,244.581 146.09,251.536 146.09,259.476C153.134,260.489 160.14,261.473 166.173,262.46C186.245,239.599 214.36,252.521 232.42,271.412C233.432,271.412 233.432,271.412 233.432,272.396C265.544,287.318 242.449,289.29 272.575,301.226L294.671,301.226C296.643,304.185 298.667,308.181 301.678,311.165C304.687,312.15 307.698,314.147 310.707,315.135C310.707,317.107 309.722,321.077 308.683,323.075C305.7,328.056 301.678,332.027 298.667,336.982C297.655,346.947 296.643,356.86 294.671,366.797C291.661,368.795 288.65,371.779 285.614,373.752L271.564,373.752C269.565,376.735 268.552,379.721 266.555,382.703C267.541,387.685 268.552,392.642 269.565,397.624C264.532,404.579 259.509,410.52 254.502,417.476C252.491,420.486 251.478,423.444 249.48,426.428C244.473,429.411 239.438,431.384 234.417,433.381C231.408,434.368 228.397,434.368 224.388,435.38L224.388,439.35C226.386,440.337 229.409,440.337 231.408,441.349C230.408,442.335 230.408,444.306 230.408,445.319C228.397,447.292 226.386,449.29 224.388,451.261C225.4,453.259 227.398,455.257 228.397,456.243L235.43,456.243C235.43,458.24 235.43,460.213 234.417,462.211C234.417,464.184 233.431,466.181 233.431,468.153C233.431,469.165 232.419,470.151 232.419,472.149C235.43,475.132 239.439,478.117 243.461,481.075C242.448,483.073 242.448,485.046 241.45,486.056L226.386,486.056C222.39,481.075 217.356,477.105 212.336,473.135C208.326,466.18 204.304,459.227 200.308,452.272C201.295,446.303 201.295,440.336 202.306,433.38C199.297,429.41 196.286,425.441 193.263,422.456C194.276,415.503 195.275,409.534 196.286,402.58C195.275,401.593 193.263,401.593 191.265,400.608L191.265,358.856C191.265,358.856 177.214,347.932 176.201,347.932C175.203,347.932 168.171,344.947 168.171,344.947C168.171,342.95 167.186,339.966 167.186,337.968C161.153,329.04 154.12,322.087 148.101,314.146C149.1,311.164 149.1,308.179 150.112,305.194L150.112,292.273C155.132,288.302 159.142,285.318 163.164,282.334C163.164,277.378 162.151,272.395 162.151,267.414C155.131,266.428 149.099,266.428 143.079,265.441C138.058,260.486 133.05,254.517 128.029,248.548C124.007,247.535 120.996,246.55 116.987,245.564C114.976,245.564 111.98,244.578 109.956,244.578C109.956,242.58 110.967,240.608 110.967,238.61C107.958,237.624 104.947,237.624 101.924,237.624L101.924,240.608C94.906,238.61 87.874,236.637 80.854,235.626C76.832,230.643 74.834,226.674 71.811,221.717C72.823,219.719 73.823,217.747 74.834,215.749C70.812,208.795 65.791,201.841 60.783,195.873C60.783,190.917 59.771,185.935 58.773,180.978L52.752,180.978C53.765,185.934 54.75,190.916 54.75,194.886C58.773,199.868 60.784,204.824 64.806,209.782C64.806,211.78 63.794,213.778 63.794,215.749C60.784,214.764 57.761,214.764 55.763,213.778C52.752,208.796 48.73,202.827 45.708,196.884L45.708,177.008C41.711,176.022 38.701,173.998 34.68,173.012L34.68,168.056C24.638,194.887 18.617,224.702 18.617,255.502C18.614,388.677 127.016,496 260.521,496C338.834,496 408.066,459.231 452.231,403.571L452.231,395.63C448.234,391.659 446.21,387.69 442.214,382.707L442.214,362.831C440.191,360.859 437.18,358.861 435.182,355.877C435.182,353.879 435.182,350.92 434.169,347.938C437.18,341.969 441.202,336.001 444.212,330.032C438.191,320.094 432.146,310.182 426.125,299.231C427.163,292.278 428.149,285.323 428.149,278.369C423.115,278.369 418.107,277.383 412.086,277.383C411.073,275.385 408.065,272.4 407.077,271.415L396.023,271.415C395.012,271.415 394.025,272.399 393.013,273.412C393.013,274.397 391.016,275.385 391.016,276.37L341.843,254.522L342.827,208.8L356.892,183.967C360.888,175.015 370.93,173.017 375.938,170.033C377.962,170.033 378.948,171.019 381.959,171.019L393.013,171.019C395.012,169.046 398.048,168.061 401.057,166.063C411.073,165.076 420.104,165.076 429.134,164.09L429.134,178.985C436.165,179.996 444.21,181.969 451.242,183.966C453.213,184.953 454.252,185.939 456.25,186.951L460.272,186.951L460.272,178.984C464.267,178.984 468.316,178.984 473.297,177.997C476.308,180.982 481.341,183.965 485.363,186.951L493.382,186.951C491.361,179.996 488.377,172.031 485.367,165.075Z" style="fill:rgb(0,179,219);"/>
                    </g>
                </g>
            </g>
            <g transform="matrix(0.106198,-0.012045,0.012045,0.106198,441.979,-0.33038)">
                <path d="M895.876,319.58C895.69,316.734 894.322,314.944 891.569,314.235C889.628,313.737 887.703,313.188 885.744,312.884C857.782,308.492 829.785,304.203 801.536,302.245C778.975,300.676 756.384,299.68 733.773,298.665C690.257,296.716 646.829,297.669 603.55,303.141C577.108,306.485 550.934,311.271 525.504,319.486C512.654,323.64 500.025,328.486 487.157,332.572C467.079,338.929 446.474,341.792 425.637,337.884C413.109,335.529 400.748,331.947 388.599,328.014C366.615,320.905 344.646,313.897 321.841,309.702C277.499,301.514 232.82,297.755 191.163,298.203C157.206,298.253 126.702,299.411 96.333,303.057C71.427,306.045 46.555,309.371 21.682,312.748C16.397,313.475 11.23,315.028 6.055,316.395C3.286,317.121 1.454,318.96 1.361,322.042C0.88,336.732 0.373,351.415 0.002,366.123C-0.048,368.335 0.492,370.563 0.83,372.775C1.108,374.64 2.13,375.932 3.92,376.717C5.819,377.545 7.77,378.38 9.459,379.545C17.624,385.235 21.558,393.848 24.69,402.788C26.919,409.18 28.363,415.832 30.211,422.35C31.359,426.412 32.879,430.379 33.799,434.482C38.113,453.662 42.124,472.926 46.539,492.075C50.752,510.346 56.24,528.212 64.978,544.929C74.738,563.604 88.652,577.907 108.399,586.129C120.354,591.11 132.79,594.285 145.539,596.312C168.385,599.925 191.367,600.365 214.415,598.693C237.751,597.005 260.791,593.475 283.241,586.687C299.907,581.638 315.662,574.614 329.035,563.233C349.45,545.824 365.888,525.156 378.51,501.449C391.124,477.775 399.971,452.602 407.908,427.081C410.196,419.753 412.348,412.382 415,405.188C418.917,394.592 426.508,388.042 437.812,386.302C441.409,385.744 445.139,385.593 448.788,385.804C457.268,386.302 465.424,388.092 471.08,395.175C473.546,398.257 475.825,401.668 477.412,405.273C480.503,412.29 483.441,419.416 485.737,426.711C495.7,458.257 508.922,488.314 525.637,516.866C539.499,540.592 557.786,559.757 582.034,572.977C599.173,582.331 617.511,588.292 636.608,592.007C665.331,597.579 694.339,598.945 723.502,597.663C741.131,596.902 758.557,594.656 775.51,589.592C792.904,584.374 808.2,575.898 819.632,561.376C827.028,552.005 832.516,541.552 837.026,530.56C846.533,507.393 852.644,483.23 858.167,458.88C860.869,446.972 863.655,435.076 866.56,423.205C868.081,416.999 869.989,410.903 871.709,404.758C873.313,399 874.682,393.157 878.328,388.176C881.992,383.169 885.741,378.264 891.853,376.094C894.521,375.14 895.873,373.283 896.447,370.75C896.885,368.791 897.358,366.799 897.358,364.831C897.375,356.042 897.375,347.253 897.122,338.48C896.923,332.167 896.265,325.886 895.876,319.58M37.541,347.399C28.035,347.399 20.335,345.508 20.335,343.178C20.335,340.829 28.035,338.94 37.541,338.94C47.031,338.94 54.723,340.831 54.723,343.178C54.723,345.507 47.031,347.399 37.541,347.399M369.841,440.337C363.814,465.99 353.876,490.035 340.57,512.746C333.308,525.157 325.069,536.774 314.617,546.737C300.821,559.908 284.214,567.675 265.986,572.455C229.082,582.112 191.757,584.527 154.001,578.871C146.605,577.757 139.31,575.814 132.032,573.975C117.046,570.125 105.674,561.396 97.028,548.529C87.463,534.277 81.594,518.626 77.66,502.093C72.527,480.513 69.639,458.578 67.461,436.53C66.186,423.739 66.431,411 68.01,398.276C68.803,391.878 69.319,385.377 70.771,379.111C75.904,356.822 89.683,342.621 111.836,336.812C132.082,331.51 152.708,328.386 173.528,326.698C188.97,325.431 204.454,324.79 214.45,324.207C249.986,324.655 279.823,326.917 309.179,333.688C321.168,336.432 333.309,338.906 344.277,344.749C349.672,347.619 354.907,351.03 359.618,354.914C367.393,361.322 371.362,370.06 373.025,379.938C376.479,400.318 374.51,420.404 369.841,440.337M829.651,430.822C828.875,461.803 823.656,492.047 812.613,521.122C808.156,532.893 802.092,543.768 792.974,552.599C782.81,562.46 770.162,567.678 756.721,571.325C739.834,575.901 722.562,577 705.168,577.151C678.911,577.387 653.042,574.112 627.394,568.657C601.982,563.256 581.717,549.948 565.592,529.803C544.924,503.968 531.687,474.655 524.274,442.568C520.845,427.742 517.959,412.824 518.33,397.517C518.499,390.932 519.175,384.279 520.374,377.786C523.328,361.61 533.258,351.047 548.218,344.97C563.246,338.891 578.967,335.177 594.822,332.035C612.468,328.531 630.264,325.914 648.215,324.758C662.232,323.846 676.279,323.466 685.785,323.052C723.389,324.893 756.264,327.661 788.23,336.78C794.107,338.451 799.729,341.128 805.285,343.737C810.554,346.203 814.605,350.238 817.223,355.465C820.112,361.249 823.081,367.031 825.363,373.052C828.031,380.111 828.622,387.675 828.909,395.163C829.363,407.047 829.954,418.952 829.651,430.822M859.319,347.399C849.83,347.399 842.13,345.508 842.13,343.178C842.13,340.829 849.83,338.94 859.319,338.94C868.807,338.94 876.507,340.831 876.507,343.178C876.508,345.507 868.808,347.399 859.319,347.399" style="fill-rule:nonzero;"/>
            </g>
        </g>
    </g>
</svg>
