<?xml version="1.0" encoding="UTF-8" standalone="no"?>
<!DOCTYPE svg PUBLIC "-//W3C//DTD SVG 1.1//EN" "http://www.w3.org/Graphics/SVG/1.1/DTD/svg11.dtd">
<svg width="100%" height="100%" viewBox="0 0 100 100" version="1.1" xmlns="http://www.w3.org/2000/svg" xmlns:xlink="http://www.w3.org/1999/xlink" xml:space="preserve" xmlns:serif="http://www.serif.com/" style="fill-rule:evenodd;clip-rule:evenodd;stroke-linejoin:round;stroke-miterlimit:2;">
    <g id="imdb" transform="matrix(1.04167,0,0,1.14943,59.375,196.552)">
        <rect x="-57" y="-171" width="96" height="87" style="fill:none;"/>
        <clipPath id="_clip1">
            <rect x="-57" y="-171" width="96" height="87"/>
        </clipPath>
        <g clip-path="url(#_clip1)">
            <g transform="matrix(0.96,0,0,0.87,-127.877,-463.362)">
                <g transform="matrix(0.684932,0,0,0.684932,-0.142603,83.3086)">
                    <circle cx="181" cy="442" r="73" style="fill:rgb(246,199,0);"/>
                </g>
                <g transform="matrix(0.158157,0,0,0.158157,78.0118,363.159)">
                    <g>
                        <rect id="g5jjnq26yS" x="69.35" y="58.24" width="45.63" height="175.65" style="fill-rule:nonzero;"/>
                        <path id="i3Prh1JpXt" d="M201.2,139.15C197.28,112.38 195.1,97.5 194.67,94.53C192.76,80.2 190.94,67.73 189.2,57.09L130.04,57.09L130.04,232.74L170.01,232.74L170.15,116.76L186.97,232.74L215.44,232.74L231.39,114.18L231.54,232.74L271.38,232.74L271.38,57.09L211.77,57.09L201.2,139.15Z" style="fill-rule:nonzero;"/>
                        <path id="a4ov9rRGQm" d="M346.71,93.63C347.21,95.87 347.47,100.95 347.47,108.89L347.47,176.99C347.47,188.68 346.71,195.84 345.2,198.48C343.68,201.12 339.64,202.43 333.09,202.43L333.09,87.13C338.06,87.13 341.45,87.66 343.25,88.7C345.05,89.75 346.21,91.39 346.71,93.63ZM367.32,230.95C372.75,229.76 377.31,227.66 381.01,224.67C384.7,221.67 387.29,217.52 388.77,212.21C390.26,206.91 391.14,196.38 391.14,180.63L391.14,118.95C391.14,102.33 390.49,91.19 389.48,85.53C388.46,79.86 385.93,74.71 381.88,70.09C377.82,65.47 371.9,62.15 364.12,60.13C356.33,58.11 343.63,57.09 321.54,57.09L287.5,57.09L287.5,232.74L342.78,232.74C355.52,232.34 363.7,231.75 367.32,230.95Z" style="fill-rule:nonzero;"/>
                        <path id="fk968BpsX" d="M464.76,204.7C463.92,206.93 460.24,208.06 457.46,208.06C454.74,208.06 452.93,206.98 452.01,204.81C451.09,202.65 450.64,197.72 450.64,190L450.64,143.58C450.64,135.58 451.04,130.59 451.85,128.6C452.65,126.63 454.41,125.63 457.13,125.63C459.91,125.63 463.64,126.76 464.6,129.03C465.55,131.3 466.03,136.15 466.03,143.58L466.03,188.59C465.74,197.84 465.32,203.21 464.76,204.7ZM406.68,231.21L447.76,231.21C449.47,224.5 450.41,220.77 450.6,220.02C454.32,224.52 458.41,227.9 462.9,230.14C467.37,232.39 474.06,233.51 479.24,233.51C486.45,233.51 492.67,231.62 497.92,227.83C503.16,224.05 506.5,219.57 507.92,214.42C509.34,209.26 510.05,201.42 510.05,190.88L510.05,141.6C510.05,131 509.81,124.08 509.34,120.83C508.87,117.58 507.47,114.27 505.14,110.88C502.81,107.49 499.42,104.86 494.98,102.98C490.54,101.1 485.3,100.16 479.26,100.16C474.01,100.16 467.29,101.21 462.81,103.28C458.34,105.35 454.28,108.49 450.64,112.7L450.64,55.56L406.68,55.56L406.68,231.21Z" style="fill-rule:nonzero;"/>
                    </g>
                </g>
            </g>
        </g>
    </g>
</svg>
