<?xml version="1.0" encoding="UTF-8" standalone="no"?>
<!DOCTYPE svg PUBLIC "-//W3C//DTD SVG 1.1//EN" "http://www.w3.org/Graphics/SVG/1.1/DTD/svg11.dtd">
<svg width="100%" height="100%" viewBox="0 0 100 100" version="1.1" xmlns="http://www.w3.org/2000/svg" xmlns:xlink="http://www.w3.org/1999/xlink" xml:space="preserve" xmlns:serif="http://www.serif.com/" style="fill-rule:evenodd;clip-rule:evenodd;stroke-linejoin:round;stroke-miterlimit:2;">
    <g id="imdb" transform="matrix(1.04167,0,0,1.14943,59.375,196.552)">
        <rect x="-57" y="-171" width="96" height="87" style="fill:none;"/>
        <clipPath id="_clip1">
            <rect x="-57" y="-171" width="96" height="87"/>
        </clipPath>
        <g clip-path="url(#_clip1)">
            <g>
                <g transform="matrix(0.657534,0,0,0.59589,-128.014,-390.884)">
                    <circle cx="181" cy="442" r="73" style="fill:rgb(246,199,0);"/>
                </g>
                <g transform="matrix(2.77026,0,0,2.51055,-113.285,-324.168)">
                    <g transform="matrix(12,0,0,12,25.1142,83.0199)">
                        <rect x="0.041" y="-0.791" width="0.206" height="0.791" style="fill-rule:nonzero;"/>
                    </g>
                    <g transform="matrix(12,0,0,12,28.5713,83.0199)">
                        <path d="M0.675,-0.791L0.675,-0L0.496,-0L0.495,-0.534L0.424,-0L0.296,-0L0.221,-0.521L0.221,-0L0.041,-0L0.041,-0.791L0.307,-0.791C0.315,-0.743 0.323,-0.687 0.331,-0.622L0.361,-0.421L0.408,-0.791L0.675,-0.791Z" style="fill-rule:nonzero;"/>
                    </g>
                    <g transform="matrix(12,0,0,12,37.1728,83.0199)">
                        <path d="M0.041,-0.791L0.195,-0.791C0.294,-0.791 0.361,-0.786 0.396,-0.777C0.431,-0.768 0.458,-0.753 0.476,-0.732C0.494,-0.711 0.506,-0.688 0.51,-0.662C0.515,-0.637 0.517,-0.587 0.517,-0.512L0.517,-0.235C0.517,-0.164 0.514,-0.116 0.507,-0.093C0.5,-0.069 0.489,-0.05 0.472,-0.036C0.456,-0.023 0.435,-0.013 0.411,-0.008C0.386,-0.003 0.349,-0 0.3,-0L0.041,-0L0.041,-0.791ZM0.247,-0.655L0.247,-0.135C0.276,-0.135 0.294,-0.141 0.301,-0.153C0.308,-0.165 0.312,-0.197 0.312,-0.25L0.312,-0.557C0.312,-0.593 0.31,-0.616 0.308,-0.626C0.306,-0.636 0.301,-0.643 0.292,-0.648C0.284,-0.653 0.269,-0.655 0.247,-0.655Z" style="fill-rule:nonzero;"/>
                    </g>
                    <g transform="matrix(12,0,0,12,43.8057,83.0199)">
                        <path d="M0.232,-0.791L0.232,-0.603C0.249,-0.622 0.267,-0.636 0.287,-0.646C0.307,-0.655 0.329,-0.66 0.352,-0.66C0.379,-0.66 0.403,-0.655 0.422,-0.647C0.442,-0.639 0.457,-0.627 0.468,-0.611C0.478,-0.596 0.484,-0.581 0.487,-0.566C0.489,-0.552 0.49,-0.521 0.49,-0.473L0.49,-0.181C0.49,-0.133 0.487,-0.098 0.48,-0.074C0.474,-0.051 0.459,-0.031 0.436,-0.014C0.412,0.003 0.384,0.012 0.352,0.012C0.329,0.012 0.307,0.007 0.287,-0.003C0.267,-0.014 0.249,-0.029 0.232,-0.049L0.22,-0L0.035,-0L0.035,-0.791L0.232,-0.791ZM0.292,-0.464C0.292,-0.497 0.29,-0.519 0.286,-0.53C0.282,-0.54 0.274,-0.545 0.261,-0.545C0.249,-0.545 0.241,-0.54 0.238,-0.531C0.234,-0.523 0.232,-0.5 0.232,-0.464L0.232,-0.185C0.232,-0.15 0.234,-0.127 0.239,-0.118C0.243,-0.108 0.251,-0.103 0.263,-0.103C0.275,-0.103 0.283,-0.108 0.287,-0.118C0.291,-0.128 0.292,-0.153 0.292,-0.191L0.292,-0.464Z" style="fill-rule:nonzero;"/>
                    </g>
                </g>
            </g>
        </g>
    </g>
</svg>
