<?xml version="1.0" encoding="UTF-8" standalone="no"?>
<!DOCTYPE svg PUBLIC "-//W3C//DTD SVG 1.1//EN" "http://www.w3.org/Graphics/SVG/1.1/DTD/svg11.dtd">
<svg width="100%" height="100%" viewBox="0 0 100 100" version="1.1" xmlns="http://www.w3.org/2000/svg" xmlns:xlink="http://www.w3.org/1999/xlink" xml:space="preserve" xmlns:serif="http://www.serif.com/" style="fill-rule:evenodd;clip-rule:evenodd;stroke-linejoin:round;stroke-miterlimit:2;">
    <g transform="matrix(1,0,0,1,-440,0)">
        <g id="justwatch" transform="matrix(1.28205,0,0,1.2987,-135.641,-148.052)">
            <rect x="449" y="114" width="78" height="77" style="fill:none;"/>
            <clipPath id="_clip1">
                <rect x="449" y="114" width="78" height="77"/>
            </clipPath>
            <g clip-path="url(#_clip1)">
                <g transform="matrix(0.78,0,0,0.77,105.02,113.23)">
                    <circle cx="491" cy="51" r="50"/>
                </g>
                <g transform="matrix(0.78,0,0,0.77,105.02,113.23)">
                    <path d="M468.163,14.115L500.106,32.558L484.135,41.779L500.106,51L484.135,60.221L500.106,69.442L468.163,87.885L468.163,69.442L484.135,78.663L484.135,60.221L468.163,69.442L468.163,51L484.135,60.221L484.135,41.779L468.163,51L468.163,14.115ZM516.078,60.221L500.106,69.442L500.106,51L516.078,60.221ZM532.404,51L516.433,60.221L516.433,41.779L532.404,51ZM516.078,41.779L500.106,51L500.106,32.558L516.078,41.779ZM468.163,32.558L484.135,41.779L484.135,23.337L468.163,32.558Z" style="fill:rgb(221,175,9);"/>
                </g>
            </g>
        </g>
    </g>
</svg>
