<?xml version="1.0" encoding="UTF-8" standalone="no"?>
<!DOCTYPE svg PUBLIC "-//W3C//DTD SVG 1.1//EN" "http://www.w3.org/Graphics/SVG/1.1/DTD/svg11.dtd">
<svg width="100%" height="100%" viewBox="0 0 100 100" version="1.1" xmlns="http://www.w3.org/2000/svg" xmlns:xlink="http://www.w3.org/1999/xlink" xml:space="preserve" xmlns:serif="http://www.serif.com/" style="fill-rule:evenodd;clip-rule:evenodd;stroke-linejoin:round;stroke-miterlimit:2;">
    <g transform="matrix(1,0,0,1,-220,0)">
        <g id="letterboxd" transform="matrix(1,0,0,1,-22,-8.52651e-14)">
            <rect x="242" y="0" width="100" height="100" style="fill:none;"/>
            <clipPath id="_clip1">
                <rect x="242" y="0" width="100" height="100"/>
            </clipPath>
            <g clip-path="url(#_clip1)">
                <g transform="matrix(1,0,0,1,-74.5,-340.048)">
                    <g transform="matrix(0.684932,0,0,0.684932,242.527,87.3086)">
                        <circle cx="181" cy="442" r="73" style="fill:rgb(44,52,64);"/>
                    </g>
                    <g transform="matrix(1,0,0,1,164,271.048)">
                        <g transform="matrix(1,0,0,1,164.5,105)">
                            <circle cx="14" cy="14" r="14" style="fill:rgb(255,128,0);"/>
                        </g>
                        <g transform="matrix(1,0,0,1,164.5,105)">
                            <circle cx="62" cy="14" r="14" style="fill:rgb(64,188,244);"/>
                        </g>
                        <g transform="matrix(1,0,0,1,164.5,105)">
                            <circle cx="38" cy="14" r="14" style="fill:rgb(0,224,84);"/>
                        </g>
                        <g transform="matrix(1,0,0,1,164.5,105)">
                            <path d="M50,6.785C51.27,8.892 52,11.361 52,14C52,16.64 51.27,19.108 50,21.215C48.73,19.108 48,16.639 48,14C48,11.388 48.715,8.943 49.96,6.85L50,6.785ZM26,6.785C27.27,8.892 28,11.361 28,14C28,16.64 27.27,19.108 26,21.215C24.73,19.108 24,16.639 24,14C24,11.388 24.715,8.943 25.96,6.85L26,6.785Z" style="fill:white;"/>
                        </g>
                    </g>
                </g>
            </g>
        </g>
    </g>
</svg>
