<?xml version="1.0" encoding="UTF-8" standalone="no"?>
<!DOCTYPE svg PUBLIC "-//W3C//DTD SVG 1.1//EN" "http://www.w3.org/Graphics/SVG/1.1/DTD/svg11.dtd">
<svg width="100%" height="100%" viewBox="0 0 101 101" version="1.1" xmlns="http://www.w3.org/2000/svg" xmlns:xlink="http://www.w3.org/1999/xlink" xml:space="preserve" xmlns:serif="http://www.serif.com/" style="fill-rule:evenodd;clip-rule:evenodd;stroke-linejoin:round;stroke-miterlimit:2;">
    <g transform="matrix(1,0,0,1,-1068,-2)">
        <g transform="matrix(1,0,0,1,622.175,2.59828)">
            <rect id="lights-canada-action" x="446" y="0" width="100" height="100" style="fill:none;"/>
            <clipPath id="_clip1">
                <rect id="lights-canada-action1" serif:id="lights-canada-action" x="446" y="0" width="100" height="100"/>
            </clipPath>
            <g clip-path="url(#_clip1)">
                <g transform="matrix(1,0,0,1,-2.27374e-13,0.523025)">
                    <g transform="matrix(0.328606,-0.0880496,0.0880496,0.328606,429.244,19.5704)">
                        <g transform="matrix(1,-2.77556e-17,2.77556e-17,1,-2.84217e-14,-72)">
                            <path d="M40,136L328,136L328,114.4C328,108.66 323.34,104 317.6,104L50.4,104C44.66,104 40,108.66 40,114.4L40,136Z" style="fill:white;"/>
                        </g>
                        <path d="M42.623,35.498C40.992,37.334 40,39.752 40,42.4L40,64L64,64L42.623,35.498ZM112,64L88,64L64,32L88,32L112,64ZM160,64L136,64L112,32L136,32L160,64ZM208,64L184,64L160,32L184,32L208,64ZM256,64L232,64L208,32L232,32L256,64ZM304,64L280,64L256,32L280,32L304,64ZM304,32L328,64L328,42.4C328,36.66 323.34,32 317.6,32L304,32Z" style="fill:rgb(224,0,0);"/>
                    </g>
                    <g transform="matrix(0.340198,0,0,0.340198,434.415,-9.18768)">
                        <rect x="40" y="136" width="288" height="32" style="fill:white;"/>
                    </g>
                    <g transform="matrix(0.340198,0,0,-0.340198,453.466,83.346)">
                        <path d="M104,104L128,136L152,136L128,104L104,104Z" style="fill:rgb(224,0,0);"/>
                    </g>
                    <g transform="matrix(0.340198,0,0,-0.340198,437.137,83.346)">
                        <path d="M104,104L128,136L152,136L128,104L104,104Z" style="fill:rgb(224,0,0);"/>
                    </g>
                    <g transform="matrix(0.340198,0,0,-0.340198,420.807,83.346)">
                        <path d="M104,104L128,136L152,136L128,104L104,104Z" style="fill:rgb(224,0,0);"/>
                    </g>
                    <g transform="matrix(0.340198,0,0,-0.340198,469.796,83.346)">
                        <path d="M104,104L128,136L152,136L128,104L104,104Z" style="fill:rgb(224,0,0);"/>
                    </g>
                    <g transform="matrix(0.340198,0,0,-0.340198,486.125,83.346)">
                        <path d="M104,104L128,136L152,136L128,104L104,104Z" style="fill:rgb(224,0,0);"/>
                    </g>
                    <g transform="matrix(0.340198,0,0,0.340198,434.415,-9.18768)">
                        <path d="M112,312L112,168L256,168L256,312L317.6,312C323.34,312 328,307.34 328,301.6L328,168L40,168L40,301.6C40,307.34 44.66,312 50.4,312L112,312Z" style="fill:rgb(224,0,0);"/>
                    </g>
                    <g transform="matrix(0.340198,0,0,0.340198,434.415,-9.18768)">
                        <path d="M40,136L64,136L40,168L40,136Z" style="fill:rgb(224,0,0);"/>
                    </g>
                    <g transform="matrix(0.340198,0,0,0.340198,434.415,-9.18768)">
                        <path d="M328,136L304,168L328,168L328,136Z" style="fill:rgb(224,0,0);"/>
                    </g>
                    <g transform="matrix(0.340198,0,0,0.340198,434.415,-9.18768)">
                        <rect x="112" y="168" width="144" height="144" style="fill:white;"/>
                    </g>
                    <g transform="matrix(0.0816474,0,0,0.0816474,448.023,47.9655)">
                        <path d="M611.25,553.75L605.625,445.875C605.617,445.693 605.612,445.511 605.612,445.328C605.612,438.814 610.973,433.453 617.487,433.453C618.162,433.453 618.835,433.511 619.5,433.625L726.875,452.5L712.375,412.5C711.172,409.245 712.181,405.562 714.875,403.375L832.5,308.125L806,295.75C802.314,294.008 800.481,289.749 801.75,285.875L825,214.375L757.25,228.75C753.48,229.536 749.644,227.539 748.125,224L735,193.125L682.125,249.875C680.591,251.493 678.458,252.41 676.229,252.41C671.771,252.41 668.104,248.742 668.104,244.285C668.104,243.77 668.153,243.256 668.25,242.75L693.75,111.25L652.875,134.875C651.629,135.605 650.211,135.99 648.767,135.99C645.694,135.99 642.874,134.248 641.5,131.5L600,50L558.5,131.5C557.126,134.248 554.306,135.99 551.233,135.99C549.789,135.99 548.371,135.605 547.125,134.875L506.25,111.25L531.75,242.75C531.847,243.256 531.896,243.77 531.896,244.285C531.896,248.742 528.229,252.41 523.771,252.41C521.542,252.41 519.409,251.493 517.875,249.875L465,193.125L451.875,224C450.356,227.539 446.52,229.536 442.75,228.75L375,214.375L398.25,285.875C399.519,289.749 397.686,294.008 394,295.75L367.5,308.125L485.125,403.375C487.819,405.562 488.828,409.245 487.625,412.5L473.125,452.5L580.5,433.625C581.165,433.511 581.838,433.453 582.513,433.453C589.027,433.453 594.388,438.814 594.388,445.328C594.388,445.511 594.383,445.693 594.375,445.875L588.75,553.75L611.25,553.75Z" style="fill:rgb(224,0,0);"/>
                    </g>
                </g>
            </g>
        </g>
    </g>
</svg>
