<?xml version="1.0" encoding="UTF-8" standalone="no"?>
<!DOCTYPE svg PUBLIC "-//W3C//DTD SVG 1.1//EN" "http://www.w3.org/Graphics/SVG/1.1/DTD/svg11.dtd">
<svg width="100%" height="100%" viewBox="0 0 100 100" version="1.1" xmlns="http://www.w3.org/2000/svg" xmlns:xlink="http://www.w3.org/1999/xlink" xml:space="preserve" xmlns:serif="http://www.serif.com/" style="fill-rule:evenodd;clip-rule:evenodd;stroke-linejoin:round;stroke-miterlimit:2;">
    <g transform="matrix(1,0,0,1,-660,0)">
        <g id="review" transform="matrix(1.28205,0,0,1.2987,84.359,-148.052)">
            <rect x="449" y="114" width="78" height="77" style="fill:none;"/>
            <clipPath id="_clip1">
                <rect x="449" y="114" width="78" height="77"/>
            </clipPath>
            <g clip-path="url(#_clip1)">
                <g transform="matrix(0.78,-1.38778e-17,2.77556e-17,0.77,105.02,113.23)">
                    <circle cx="491" cy="51" r="50" style="fill:rgb(0,179,219);"/>
                </g>
                <g transform="matrix(1.25875,0,3.33067e-16,1.24261,-443.926,-98.2428)">
                    <path d="M740.356,177L745.921,194.127L763.93,194.127L749.361,204.712L754.926,221.839L740.356,211.254L725.787,221.839L731.352,204.712L716.783,194.127L734.791,194.127L740.356,177Z" style="fill:white;"/>
                </g>
            </g>
        </g>
    </g>
</svg>
