<?xml version="1.0" encoding="UTF-8" standalone="no"?>
<!DOCTYPE svg PUBLIC "-//W3C//DTD SVG 1.1//EN" "http://www.w3.org/Graphics/SVG/1.1/DTD/svg11.dtd">
<svg width="100%" height="100%" viewBox="0 0 100 101" version="1.1" xmlns="http://www.w3.org/2000/svg" xmlns:xlink="http://www.w3.org/1999/xlink" xml:space="preserve" xmlns:serif="http://www.serif.com/" style="fill-rule:evenodd;clip-rule:evenodd;stroke-linejoin:round;stroke-miterlimit:2;">
    <g transform="matrix(1,0,0,1,-555,-223)">
        <g id="rotten-tomatoes-3" transform="matrix(1.28205,0,0,1.2987,-20.641,75.6627)">
            <rect x="449" y="114" width="78" height="77" style="fill:none;"/>
            <clipPath id="_clip1">
                <rect x="449" y="114" width="78" height="77"/>
            </clipPath>
            <g clip-path="url(#_clip1)">
                <g transform="matrix(0.78,0,0,0.77,105.02,113.23)">
                    <circle cx="491" cy="51" r="50" style="fill:rgb(249,50,8);"/>
                </g>
                <g transform="matrix(0.979093,0,0,0.96654,609.605,-88.6621)">
                    <path d="M-123.53,277.627C-120.033,276.588 -118.593,274.682 -118.631,271.14C-118.644,269.951 -118.915,268.29 -119.234,267.447C-120.909,263.014 -120.895,263.071 -120.489,262.18C-120.271,261.702 -119.701,261.132 -119.222,260.914C-118.067,260.388 -117.377,260.841 -115.816,263.152C-113.6,266.432 -109.608,270.162 -107.016,271.376C-104.938,272.348 -104.354,272.465 -102.173,272.341C-100.007,272.219 -99.44,272.027 -97.699,270.828C-95.413,269.254 -94.798,267.972 -94.819,264.832C-94.841,261.686 -96.473,259.089 -99.718,257.037C-101.703,255.781 -105.928,254.489 -109.003,254.197C-112.923,253.824 -114.307,253.185 -114.807,251.513C-115.294,249.888 -114.782,248.555 -113.229,247.406C-112.438,246.82 -111.469,246.623 -108.545,246.452C-106.191,246.315 -104.455,246.023 -103.741,245.645C-98.635,242.943 -98.303,234.177 -103.178,230.789C-104.542,229.841 -105.046,229.705 -107.142,229.717C-111.969,229.744 -115.234,232.904 -116.774,239.043C-116.899,239.539 -117.382,240.356 -117.849,240.859C-118.835,241.923 -120.689,242.085 -122.307,241.249C-123.937,240.405 -124.147,238.555 -123.208,233.264C-122.041,226.681 -122.675,223.924 -125.771,222.11C-127.742,220.955 -131.246,220.55 -133.328,221.237C-135.164,221.843 -137.555,224.298 -138.106,226.142C-139.216,229.86 -138.336,232.216 -134.218,236.538C-132.488,238.354 -130.968,240.173 -130.838,240.58C-130.248,242.441 -132.492,244.577 -134.561,244.123C-135.741,243.863 -136.864,242.72 -138.69,239.916C-141.624,235.409 -145.722,233.97 -149.759,236.03C-153.232,237.802 -154.131,241.805 -151.825,245.227C-150.487,247.213 -148.085,248.537 -144.385,249.327C-139.027,250.472 -137.518,251.635 -138.98,253.493C-139.738,254.457 -139.81,254.473 -142.305,254.201C-146.07,253.792 -147.529,253.943 -149.62,254.958C-151.8,256.016 -152.75,257.186 -153.343,259.542C-154.533,264.267 -151.203,268.453 -146.273,268.432C-143.677,268.42 -141.706,267.348 -138.411,264.158C-134.771,260.633 -134.121,260.261 -132.946,261.031C-131.66,261.874 -131.499,263.123 -132.38,265.426C-134.384,270.662 -132.535,276.106 -128.23,277.64C-126.426,278.283 -125.73,278.281 -123.53,277.628L-123.53,277.627Z" style="fill:white;fill-rule:nonzero;"/>
                </g>
            </g>
        </g>
    </g>
</svg>
