<?xml version="1.0" encoding="UTF-8" standalone="no"?>
<!DOCTYPE svg PUBLIC "-//W3C//DTD SVG 1.1//EN" "http://www.w3.org/Graphics/SVG/1.1/DTD/svg11.dtd">
<svg width="100%" height="100%" viewBox="0 0 100 101" version="1.1" xmlns="http://www.w3.org/2000/svg" xmlns:xlink="http://www.w3.org/1999/xlink" xml:space="preserve" xmlns:serif="http://www.serif.com/" style="fill-rule:evenodd;clip-rule:evenodd;stroke-linejoin:round;stroke-miterlimit:2;">
    <g transform="matrix(1,0,0,1,-555,-111)">
        <g id="rotten-tomatoes-2" transform="matrix(1.28205,0,0,1.2987,-20.641,-36.3373)">
            <rect x="449" y="114" width="78" height="77" style="fill:none;"/>
            <clipPath id="_clip1">
                <rect x="449" y="114" width="78" height="77"/>
            </clipPath>
            <g clip-path="url(#_clip1)">
                <g transform="matrix(0.78,0,0,0.77,105.02,113.23)">
                    <circle cx="491" cy="51" r="50" style="fill:rgb(249,50,8);"/>
                </g>
                <g>
                    <g transform="matrix(0.611713,0,0,0.60387,401.835,-51.4446)">
                        <path d="M131.72,380.49C122.932,379.26 114.493,375.415 108.88,370.083C101.938,363.488 97.822,353.223 97.822,342.504C97.822,331.321 102.895,321.441 112.481,313.955C114.148,312.653 115.452,311.529 115.379,311.457C115.307,311.384 112.54,311.509 109.232,311.735C105.924,311.961 103.122,312.051 103.007,311.935C102.652,311.58 104.929,308.571 106.487,307.337C109.677,304.811 113.686,303.917 117.504,304.877C120.368,305.599 120.264,304.889 116.974,301.287L114.038,298.069L115.986,296.404C117.058,295.489 118.013,294.74 118.108,294.74C118.203,294.74 119.453,296.607 120.886,298.889C122.319,301.171 123.624,303.119 123.786,303.219C123.946,303.319 124.667,302.513 125.388,301.428C128.492,296.751 132.892,294.647 137.114,295.819C139.942,296.605 139.942,296.769 137.123,300.293C135.722,302.045 134.575,303.506 134.575,303.541C134.575,303.576 137.472,303.536 141.013,303.452C153.448,303.159 161.738,305.061 168.694,309.803C171.077,311.427 174.586,314.988 176.344,317.566C177.704,319.558 181.418,327.21 182.287,329.806C184.159,335.409 184.441,345.316 182.893,351.13C181.8,355.235 178.992,360.716 176.217,364.162C169.95,371.945 159.77,377.698 148.267,379.956C144.698,380.656 135.119,380.966 131.719,380.49L131.72,380.49Z" style="fill:white;fill-rule:nonzero;"/>
                    </g>
                    <g transform="matrix(0.230199,0,0,0.227248,487.871,126.16)">
                        <path d="M27.559,157.18L27.559,120.491L0.807,120.491L0.807,91.889L41.255,92.077C63.501,92.181 81.789,92.317 81.894,92.38C81.999,92.443 82.085,98.736 82.085,106.365L82.085,120.235L56.097,120.235L56.097,193.87L27.561,193.87L27.561,157.18L27.559,157.18Z" style="fill:rgb(249,50,8);fill-rule:nonzero;"/>
                    </g>
                    <g transform="matrix(0.230199,0,0,0.227248,448.618,141.423)">
                        <path d="M104.8,101.98L96.783,101.876L96.783,0.638L120.969,0.638C147.057,0.638 149.259,0.763 155.628,2.611C165.962,5.609 173.851,12.107 178.198,21.202C180.312,25.624 181.14,29.161 181.358,34.688C181.848,47.178 176.549,58.038 167.169,63.77C164.359,65.487 164.229,65.623 164.687,66.35C165.921,68.311 185.423,101.898 185.423,102.063C185.423,102.165 177.98,102.249 168.883,102.249L152.345,102.249L142.745,86.082C137.465,77.19 132.942,69.637 132.694,69.298C132.358,68.838 131.501,68.63 129.336,68.481L126.43,68.282L126.612,85.265L126.793,102.248L119.805,102.165C115.962,102.12 109.209,102.035 104.8,101.978L104.8,101.98ZM140.503,45.501C147.27,44.077 150.731,40.834 151.11,35.563C151.375,31.876 150.499,29.361 148.156,27.081C145.052,24.058 140.719,23.011 131.23,22.989L126.222,22.979L126.456,26.277C126.585,28.091 126.69,33.385 126.69,38.043L126.69,46.51L132.365,46.265C135.487,46.13 139.149,45.786 140.503,45.501Z" style="fill:rgb(249,50,8);fill-rule:nonzero;"/>
                    </g>
                </g>
            </g>
        </g>
    </g>
</svg>
