<?xml version="1.0" encoding="UTF-8" standalone="no"?>
<!DOCTYPE svg PUBLIC "-//W3C//DTD SVG 1.1//EN" "http://www.w3.org/Graphics/SVG/1.1/DTD/svg11.dtd">
<svg width="100%" height="100%" viewBox="0 0 100 100" version="1.1" xmlns="http://www.w3.org/2000/svg" xmlns:xlink="http://www.w3.org/1999/xlink" xml:space="preserve" xmlns:serif="http://www.serif.com/" style="fill-rule:evenodd;clip-rule:evenodd;stroke-linejoin:round;stroke-miterlimit:2;">
    <g transform="matrix(1,0,0,1,-910,0)">
        <g id="route50flicks" transform="matrix(1,0,0,1,464,-1.56319e-13)">
            <rect x="446" y="0" width="100" height="100" style="fill:none;"/>
            <clipPath id="_clip1">
                <rect x="446" y="0" width="100" height="100"/>
            </clipPath>
            <g clip-path="url(#_clip1)">
                <g transform="matrix(1,0,0,1,409.645,428.002)">
                    <g transform="matrix(0.104602,0,0,0.104602,24.5878,-442.123)">
                        <path d="M590.5,1091C590.5,1091 573.845,1091.16 560,1076C529.05,1042.12 483.716,1031.05 413,1023C333.089,1013.9 264.388,1001.72 206,945C174.985,914.873 133.075,855.136 133,758C132.9,627.87 214.001,570.558 216,479C217.43,413.483 163.983,333.583 159,327C154.017,320.417 151.015,317.795 152,308C152.985,298.205 161,290 161,290C161,290 302.506,154.336 309,147C315.494,139.664 321.038,134.985 330,135C342.005,135.02 340.859,136.122 352,144C362.717,151.579 410.331,182.074 470,180C511.339,178.563 537.713,172.578 563.626,154.072C581.124,141.575 590.5,141 590.5,141C590.5,141 600.97,142.356 617.374,154.072C643.287,172.578 669.661,178.563 711,180C770.669,182.074 818.283,151.579 829,144C840.141,136.122 838.995,135.02 851,135C859.962,134.985 865.506,139.664 872,147C878.494,154.336 1020,290 1020,290C1020,290 1028.02,298.205 1029,308C1029.99,317.795 1026.98,320.417 1022,327C1017.02,333.583 963.57,413.483 965,479C966.999,570.558 1048.1,627.87 1048,758C1047.92,855.136 1006.01,914.873 975,945C916.612,1001.72 847.911,1013.9 768,1023C697.284,1031.05 651.95,1042.12 621,1076C606.709,1091.64 590.5,1091 590.5,1091Z" style="fill:rgb(89,89,89);"/>
                    </g>
                    <g transform="matrix(0.104602,0,0,0.104602,24.5878,-442.123)">
                        <path d="M590.414,1067.91C588.645,1066.07 559.435,1036.29 505,1016C424.75,986.096 355.913,1013.09 257,955C202.319,922.886 159.567,859.219 159,761C158.243,629.997 245.178,564.173 241,474C237.382,395.902 176,310 176,310L332,160C332,160 402.166,207.529 473,205C543.834,202.471 590.5,166 590.5,166L590.636,166.105C593.435,168.243 639.376,202.55 708,205C778.834,207.529 849,160 849,160L1005,310C1005,310 943.618,395.902 940,474C935.822,564.173 1022.76,629.997 1022,761C1021.43,859.219 978.681,922.886 924,955C825.087,1013.09 756.25,986.096 676,1016C619.812,1036.94 590.5,1068 590.5,1068L590.414,1067.91Z" style="fill:white;"/>
                    </g>
                    <g transform="matrix(0.104602,0,0,0.104602,24.5878,-442.123)">
                        <path d="M272,434C272,434 268.483,402.722 254,373C235.815,335.68 219,315 219,315L337,202C337,202 384.526,236.5 461,240C527.484,243.043 590.5,209 590.5,209L590.683,209.098C594.436,211.088 655.59,242.948 720,240C796.474,236.5 844,202 844,202L962,315C962,315 945.185,335.68 927,373C912.517,402.722 909,434 909,434L272,434Z" style="fill:rgb(209,0,26);"/>
                    </g>
                    <g transform="matrix(0.104602,0,0,0.104602,24.5878,-442.123)">
                        <path d="M590.432,1010.93C589.027,1009.52 565.842,986.654 523,974C478.779,960.939 368.426,954.179 306,933C244.118,912.006 201.282,848.459 196,784C187.723,682.993 240.279,612.045 257,566C273.721,519.955 276,471 276,471L905,471C905,471 907.279,519.955 924,566C940.721,612.045 993.277,682.993 985,784C979.718,848.459 936.882,912.006 875,933C812.574,954.179 702.221,960.939 658,974C613.779,987.061 590.5,1011 590.5,1011L590.432,1010.93Z" style="fill:rgb(4,0,184);"/>
                    </g>
                    <g transform="matrix(0.104602,0,0,0.104602,15.7461,-437.834)">
                        <g transform="matrix(160,0,0,160,386.707,352.357)">
                            <path d="M0.492,-0L0.694,-0L0.547,-0.231C0.629,-0.272 0.674,-0.349 0.674,-0.456C0.674,-0.612 0.568,-0.7 0.383,-0.7L0.07,-0.7L0.07,-0L0.248,-0L0.248,-0.197L0.388,-0.197L0.492,-0ZM0.248,-0.337L0.248,-0.56L0.383,-0.56C0.46,-0.56 0.505,-0.523 0.505,-0.45C0.505,-0.376 0.46,-0.337 0.383,-0.337L0.248,-0.337Z" style="fill:white;fill-rule:nonzero;"/>
                        </g>
                        <g transform="matrix(160,0,0,160,502.547,352.357)">
                            <path d="M0.402,-0.706C0.186,-0.706 0.024,-0.555 0.024,-0.351C0.024,-0.146 0.186,0.008 0.402,0.008C0.619,0.008 0.781,-0.147 0.781,-0.351C0.781,-0.554 0.619,-0.706 0.402,-0.706ZM0.404,-0.557C0.512,-0.557 0.598,-0.468 0.598,-0.35C0.598,-0.232 0.512,-0.141 0.404,-0.141C0.297,-0.141 0.206,-0.232 0.206,-0.35C0.206,-0.468 0.296,-0.557 0.404,-0.557Z" style="fill:white;fill-rule:nonzero;"/>
                        </g>
                        <g transform="matrix(160,0,0,160,631.347,352.357)">
                            <path d="M0.7,-0.7L0.523,-0.7L0.523,-0.294C0.523,-0.199 0.466,-0.141 0.382,-0.141C0.297,-0.141 0.236,-0.199 0.236,-0.294L0.236,-0.7L0.058,-0.7L0.058,-0.294C0.058,-0.109 0.184,0.008 0.381,0.008C0.577,0.008 0.7,-0.109 0.7,-0.294L0.7,-0.7Z" style="fill:white;fill-rule:nonzero;"/>
                        </g>
                        <g transform="matrix(160,0,0,160,752.627,352.357)">
                            <path d="M0.605,-0.557L0.605,-0.701L0.007,-0.701L0.007,-0.557L0.216,-0.557L0.216,-0L0.394,-0L0.394,-0.557L0.605,-0.557Z" style="fill:white;fill-rule:nonzero;"/>
                        </g>
                        <g transform="matrix(160,0,0,160,850.387,352.357)">
                            <path d="M0.618,-0.56L0.618,-0.7L0.07,-0.7L0.07,-0L0.629,-0L0.629,-0.14L0.248,-0.14L0.248,-0.281L0.582,-0.281L0.582,-0.421L0.248,-0.421L0.248,-0.56L0.618,-0.56Z" style="fill:white;fill-rule:nonzero;"/>
                        </g>
                    </g>
                    <g transform="matrix(0.104602,0,0,0.104602,15.6844,-383.964)">
                        <g transform="matrix(140,0,0,140,422.917,352.357)">
                            <path d="M0.589,-0.56L0.589,-0.7L0.07,-0.7L0.07,-0L0.248,-0L0.248,-0.258L0.562,-0.258L0.562,-0.398L0.248,-0.398L0.248,-0.56L0.589,-0.56Z" style="fill:white;fill-rule:nonzero;"/>
                        </g>
                        <g transform="matrix(140,0,0,140,507.477,352.357)">
                            <path d="M0.248,-0.149L0.248,-0.7L0.07,-0.7L0.07,-0L0.545,-0L0.545,-0.149L0.248,-0.149Z" style="fill:white;fill-rule:nonzero;"/>
                        </g>
                        <g transform="matrix(140,0,0,140,585.877,352.357)">
                            <rect x="0.07" y="-0.7" width="0.178" height="0.7" style="fill:white;fill-rule:nonzero;"/>
                        </g>
                        <g transform="matrix(140,0,0,140,630.397,352.357)">
                            <path d="M0.398,-0.706C0.185,-0.706 0.024,-0.554 0.024,-0.352C0.024,-0.147 0.181,0.008 0.392,0.008C0.495,0.008 0.606,-0.043 0.681,-0.12L0.577,-0.23C0.528,-0.18 0.46,-0.148 0.401,-0.148C0.29,-0.148 0.206,-0.237 0.206,-0.354C0.206,-0.469 0.29,-0.557 0.401,-0.557C0.463,-0.557 0.531,-0.522 0.577,-0.466L0.68,-0.588C0.61,-0.66 0.502,-0.706 0.398,-0.706Z" style="fill:white;fill-rule:nonzero;"/>
                        </g>
                        <g transform="matrix(140,0,0,140,727.277,352.357)">
                            <path d="M0.526,-0L0.739,-0L0.462,-0.41L0.722,-0.7L0.516,-0.7L0.248,-0.397L0.248,-0.7L0.07,-0.7L0.07,-0L0.248,-0L0.248,-0.172L0.341,-0.275L0.526,-0Z" style="fill:white;fill-rule:nonzero;"/>
                        </g>
                        <g transform="matrix(140,0,0,140,831.857,352.357)">
                            <path d="M0.339,-0.708C0.171,-0.708 0.06,-0.626 0.06,-0.497C0.06,-0.249 0.43,-0.323 0.43,-0.199C0.43,-0.159 0.395,-0.138 0.339,-0.138C0.266,-0.138 0.158,-0.18 0.086,-0.243L0.017,-0.106C0.1,-0.038 0.22,0.006 0.337,0.006C0.493,0.006 0.617,-0.068 0.617,-0.208C0.617,-0.461 0.247,-0.392 0.247,-0.513C0.247,-0.547 0.278,-0.564 0.324,-0.564C0.381,-0.564 0.474,-0.534 0.548,-0.491L0.615,-0.63C0.543,-0.677 0.44,-0.708 0.339,-0.708Z" style="fill:white;fill-rule:nonzero;"/>
                        </g>
                    </g>
                    <g transform="matrix(0.104602,0,0,0.104602,16.2775,-398.504)">
                        <g transform="matrix(360,0,0,360,438.827,352.357)">
                            <path d="M0.532,-0.559L0.532,-0.7L0.073,-0.7L0.073,-0.305C0.116,-0.308 0.227,-0.31 0.263,-0.31C0.332,-0.31 0.372,-0.278 0.372,-0.223C0.372,-0.163 0.332,-0.129 0.263,-0.129C0.2,-0.129 0.137,-0.159 0.085,-0.215L0.014,-0.08C0.087,-0.028 0.192,0.007 0.284,0.007C0.453,0.007 0.563,-0.088 0.563,-0.235C0.563,-0.36 0.458,-0.446 0.298,-0.446L0.235,-0.446L0.235,-0.559L0.532,-0.559Z" style="fill:white;fill-rule:nonzero;"/>
                        </g>
                        <g transform="matrix(360,0,0,360,653.027,352.357)">
                            <path d="M0.352,-0.706C0.152,-0.706 0.041,-0.579 0.041,-0.351C0.041,-0.122 0.152,0.005 0.352,0.005C0.55,0.005 0.661,-0.122 0.661,-0.351C0.661,-0.579 0.55,-0.706 0.352,-0.706ZM0.352,-0.576C0.44,-0.576 0.479,-0.511 0.479,-0.351C0.479,-0.191 0.44,-0.125 0.352,-0.125C0.262,-0.125 0.224,-0.191 0.224,-0.351C0.224,-0.511 0.262,-0.576 0.352,-0.576Z" style="fill:white;fill-rule:nonzero;"/>
                        </g>
                    </g>
                </g>
            </g>
        </g>
    </g>
</svg>
