<?xml version="1.0" encoding="UTF-8" standalone="no"?>
<!DOCTYPE svg PUBLIC "-//W3C//DTD SVG 1.1//EN" "http://www.w3.org/Graphics/SVG/1.1/DTD/svg11.dtd">
<svg width="100%" height="100%" viewBox="0 0 300 290" version="1.1" xmlns="http://www.w3.org/2000/svg" xmlns:xlink="http://www.w3.org/1999/xlink" xml:space="preserve" xmlns:serif="http://www.serif.com/" style="fill-rule:evenodd;clip-rule:evenodd;stroke-linejoin:round;stroke-miterlimit:2;">
    <g transform="matrix(1,0,0,1,0,-500)">
        <g id="tshirt" transform="matrix(1,0,0,1.0146,0,-14.4013)">
            <rect x="0" y="507" width="300" height="285.827" style="fill:none;"/>
            <g transform="matrix(0.0234393,-3.66337e-34,3.71685e-34,-0.0231021,-0.0234393,790.879)">
                <path d="M7723,12180C7625,12154 7532,12110 7350,12001C7138,11873 7051,11827 6942,11785C6480,11607 5977,11688 5261,12056C5160,12108 5073,12150 5067,12150C5061,12150 4932,12102 4781,12044C3819,11675 3360,11499 3028,11371L2652,11225L1326,9706L1,8186L38,8143C58,8119 482,7644 980,7086L1885,6071L2021,6071L2157,6070L2396,6321L2635,6573L2645,185L2678,100C2696,53 2715,11 2719,7C2723,3 4369,4 6376,11L10024,23L10132,98L10240,174L10240,464C10240,624 10235,1171 10230,1680C10222,2515 10215,3189 10191,5710C10187,6142 10185,6497 10186,6499C10188,6501 10309,6386 10455,6244C10602,6101 10727,5984 10733,5983C10740,5981 10791,5990 10848,6003L10951,6025L11875,7060L12800,8095L12800,8405L10362,11055L9434,11474C8923,11705 8353,11963 8167,12047C7981,12131 7822,12200 7812,12199C7803,12199 7763,12190 7723,12180Z" style="fill:rgb(38,38,38);fill-rule:nonzero;"/>
            </g>
            <g transform="matrix(52.8498,0,0,52.0893,84.9419,613.105)">
                <path d="M0.232,-0L0.34,-0L0.34,-0.735L0.232,-0.735L0.232,-0.431L0.148,-0.431L0.148,-0.735L0.04,-0.735L0.04,-0L0.148,-0L0.148,-0.32L0.232,-0.32L0.232,-0Z" style="fill:white;fill-rule:nonzero;"/>
            </g>
            <g transform="matrix(52.8498,0,0,52.0893,105.025,613.105)">
                <path d="M0.04,-0L0.287,-0L0.287,-0.111L0.148,-0.111L0.148,-0.313L0.248,-0.313L0.248,-0.431L0.148,-0.431L0.148,-0.624L0.287,-0.624L0.287,-0.735L0.04,-0.735L0.04,-0Z" style="fill:white;fill-rule:nonzero;"/>
            </g>
            <g transform="matrix(52.8498,0,0,52.0893,121.25,613.105)">
                <path d="M0.04,-0L0.291,-0L0.291,-0.1L0.148,-0.1L0.148,-0.735L0.04,-0.735L0.04,-0Z" style="fill:white;fill-rule:nonzero;"/>
            </g>
            <g transform="matrix(52.8498,0,0,52.0893,136.84,613.105)">
                <path d="M0.04,-0L0.291,-0L0.291,-0.1L0.148,-0.1L0.148,-0.735L0.04,-0.735L0.04,-0Z" style="fill:white;fill-rule:nonzero;"/>
            </g>
            <g transform="matrix(52.8498,0,0,52.0893,152.431,613.105)">
                <path d="M0.321,-0.151L0.321,-0.584C0.321,-0.584 0.322,-0.743 0.177,-0.743C0.032,-0.743 0.033,-0.584 0.033,-0.584L0.033,-0.151C0.033,-0.151 0.032,0.008 0.177,0.008C0.322,0.008 0.321,-0.151 0.321,-0.151ZM0.213,-0.584L0.213,-0.151C0.213,-0.151 0.215,-0.097 0.177,-0.097C0.139,-0.097 0.141,-0.151 0.141,-0.151L0.141,-0.584C0.141,-0.584 0.139,-0.638 0.177,-0.638C0.215,-0.638 0.213,-0.584 0.213,-0.584Z" style="fill:white;fill-rule:nonzero;"/>
            </g>
            <g transform="matrix(52.8498,0,0,52.0893,179.279,613.105)">
                <path d="M0.104,-0.624L0.104,-0L0.212,-0L0.212,-0.624L0.314,-0.624L0.314,-0.735L0.002,-0.735L0.002,-0.624L0.104,-0.624Z" style="fill:white;fill-rule:nonzero;"/>
            </g>
            <g transform="matrix(52.8498,0,0,52.0893,195.979,613.105)">
                <path d="M0.321,-0.151L0.321,-0.584C0.321,-0.584 0.322,-0.743 0.177,-0.743C0.032,-0.743 0.033,-0.584 0.033,-0.584L0.033,-0.151C0.033,-0.151 0.032,0.008 0.177,0.008C0.322,0.008 0.321,-0.151 0.321,-0.151ZM0.213,-0.584L0.213,-0.151C0.213,-0.151 0.215,-0.097 0.177,-0.097C0.139,-0.097 0.141,-0.151 0.141,-0.151L0.141,-0.584C0.141,-0.584 0.139,-0.638 0.177,-0.638C0.215,-0.638 0.213,-0.584 0.213,-0.584Z" style="fill:white;fill-rule:nonzero;"/>
            </g>
            <g transform="matrix(77.8548,0,0,76.7346,86.5872,672.939)">
                <path d="M0.006,0.007C0.134,0.014 0.172,-0.057 0.172,-0.136L0.172,-0.735L0.064,-0.735L0.064,-0.153C0.064,-0.087 0.006,-0.099 0.006,-0.099L0.006,0.007Z" style="fill:white;fill-rule:nonzero;"/>
            </g>
            <g transform="matrix(77.8548,0,0,76.7346,102.703,672.939)">
                <path d="M0.115,-0L0.135,-0.15L0.239,-0.15L0.259,-0L0.364,-0L0.253,-0.735L0.121,-0.735L0.01,-0L0.115,-0ZM0.224,-0.264L0.15,-0.264L0.181,-0.496L0.184,-0.515L0.19,-0.515L0.193,-0.496L0.224,-0.264Z" style="fill:white;fill-rule:nonzero;"/>
            </g>
            <g transform="matrix(77.8548,0,0,76.7346,131.042,672.939)">
                <path d="M0.033,-0.571C0.033,-0.492 0.081,-0.417 0.132,-0.342C0.173,-0.28 0.219,-0.221 0.219,-0.172C0.219,-0.126 0.207,-0.091 0.175,-0.091C0.13,-0.091 0.124,-0.155 0.124,-0.216L0.018,-0.206C0.018,-0.097 0.036,0.008 0.175,0.008C0.293,0.008 0.325,-0.079 0.325,-0.177C0.325,-0.256 0.274,-0.329 0.224,-0.404C0.182,-0.465 0.139,-0.521 0.139,-0.571C0.139,-0.613 0.148,-0.643 0.176,-0.644C0.212,-0.644 0.219,-0.587 0.219,-0.538L0.325,-0.548C0.325,-0.63 0.304,-0.746 0.174,-0.743C0.072,-0.741 0.033,-0.651 0.033,-0.571Z" style="fill:white;fill-rule:nonzero;"/>
            </g>
            <g transform="matrix(77.8548,0,0,76.7346,157.747,672.939)">
                <path d="M0.321,-0.151L0.321,-0.584C0.321,-0.584 0.322,-0.743 0.177,-0.743C0.032,-0.743 0.033,-0.584 0.033,-0.584L0.033,-0.151C0.033,-0.151 0.032,0.008 0.177,0.008C0.322,0.008 0.321,-0.151 0.321,-0.151ZM0.213,-0.584L0.213,-0.151C0.213,-0.151 0.215,-0.097 0.177,-0.097C0.139,-0.097 0.141,-0.151 0.141,-0.151L0.141,-0.584C0.141,-0.584 0.139,-0.638 0.177,-0.638C0.215,-0.638 0.213,-0.584 0.213,-0.584Z" style="fill:white;fill-rule:nonzero;"/>
            </g>
            <g transform="matrix(77.8548,0,0,76.7346,185.307,672.939)">
                <path d="M0.259,-0L0.355,-0L0.355,-0.735L0.256,-0.735L0.256,-0.318L0.25,-0.318L0.241,-0.352L0.136,-0.735L0.04,-0.735L0.04,-0L0.139,-0L0.139,-0.417L0.145,-0.417L0.154,-0.383L0.259,-0Z" style="fill:white;fill-rule:nonzero;"/>
            </g>
            <g transform="matrix(65.9109,0,0,64.9625,84.4187,725.014)">
                <rect x="0.04" y="-0.735" width="0.108" height="0.735" style="fill:white;fill-rule:nonzero;"/>
            </g>
            <g transform="matrix(65.9109,0,0,64.9625,96.8099,725.014)">
                <path d="M0.033,-0.571C0.033,-0.492 0.081,-0.417 0.132,-0.342C0.173,-0.28 0.219,-0.221 0.219,-0.172C0.219,-0.126 0.207,-0.091 0.175,-0.091C0.13,-0.091 0.124,-0.155 0.124,-0.216L0.018,-0.206C0.018,-0.097 0.036,0.008 0.175,0.008C0.293,0.008 0.325,-0.079 0.325,-0.177C0.325,-0.256 0.274,-0.329 0.224,-0.404C0.182,-0.465 0.139,-0.521 0.139,-0.571C0.139,-0.613 0.148,-0.643 0.176,-0.644C0.212,-0.644 0.219,-0.587 0.219,-0.538L0.325,-0.548C0.325,-0.63 0.304,-0.746 0.174,-0.743C0.072,-0.741 0.033,-0.651 0.033,-0.571Z" style="fill:white;fill-rule:nonzero;"/>
            </g>
            <g transform="matrix(65.9109,0,0,64.9625,119.417,725.014)">
                <path d="M0.115,-0L0.135,-0.15L0.239,-0.15L0.259,-0L0.364,-0L0.253,-0.735L0.121,-0.735L0.01,-0L0.115,-0ZM0.224,-0.264L0.15,-0.264L0.181,-0.496L0.184,-0.515L0.19,-0.515L0.193,-0.496L0.224,-0.264Z" style="fill:white;fill-rule:nonzero;"/>
            </g>
            <g transform="matrix(65.9109,0,0,64.9625,144.068,725.014)">
                <path d="M0.115,-0L0.135,-0.15L0.239,-0.15L0.259,-0L0.364,-0L0.253,-0.735L0.121,-0.735L0.01,-0L0.115,-0ZM0.224,-0.264L0.15,-0.264L0.181,-0.496L0.184,-0.515L0.19,-0.515L0.193,-0.496L0.224,-0.264Z" style="fill:white;fill-rule:nonzero;"/>
            </g>
            <g transform="matrix(65.9109,0,0,64.9625,168.719,725.014)">
                <path d="M0.22,-0.252L0.22,-0.151C0.22,-0.151 0.224,-0.097 0.179,-0.097C0.141,-0.097 0.141,-0.151 0.141,-0.151L0.141,-0.584C0.141,-0.584 0.141,-0.638 0.179,-0.638C0.224,-0.638 0.22,-0.584 0.22,-0.584L0.22,-0.483L0.321,-0.483L0.321,-0.584C0.321,-0.584 0.322,-0.743 0.177,-0.743C0.032,-0.743 0.033,-0.584 0.033,-0.584L0.033,-0.151C0.033,-0.151 0.032,0.008 0.177,0.008C0.322,0.008 0.321,-0.151 0.321,-0.151L0.321,-0.252L0.22,-0.252Z" style="fill:white;fill-rule:nonzero;"/>
            </g>
            <g transform="matrix(65.9109,0,0,64.9625,191.524,725.014)">
                <path d="M0.033,-0.571C0.033,-0.492 0.081,-0.417 0.132,-0.342C0.173,-0.28 0.219,-0.221 0.219,-0.172C0.219,-0.126 0.207,-0.091 0.175,-0.091C0.13,-0.091 0.124,-0.155 0.124,-0.216L0.018,-0.206C0.018,-0.097 0.036,0.008 0.175,0.008C0.293,0.008 0.325,-0.079 0.325,-0.177C0.325,-0.256 0.274,-0.329 0.224,-0.404C0.182,-0.465 0.139,-0.521 0.139,-0.571C0.139,-0.613 0.148,-0.643 0.176,-0.644C0.212,-0.644 0.219,-0.587 0.219,-0.538L0.325,-0.548C0.325,-0.63 0.304,-0.746 0.174,-0.743C0.072,-0.741 0.033,-0.651 0.033,-0.571Z" style="fill:white;fill-rule:nonzero;"/>
            </g>
        </g>
    </g>
</svg>
